<svg width="16" height="16" viewBox="0 0 16 16" fill="none" xmlns="http://www.w3.org/2000/svg">
<path d="M10.5 9.5C10.5 9.63261 10.4473 9.75979 10.3536 9.85355C10.2598 9.94732 10.1326 10 10 10H6C5.86739 10 5.74021 9.94732 5.64645 9.85355C5.55268 9.75979 5.5 9.63261 5.5 9.5C5.5 9.36739 5.55268 9.24022 5.64645 9.14645C5.74021 9.05268 5.86739 9 6 9H10C10.1326 9 10.2598 9.05268 10.3536 9.14645C10.4473 9.24022 10.5 9.36739 10.5 9.5ZM10 7H6C5.86739 7 5.74021 7.05268 5.64645 7.14645C5.55268 7.24022 5.5 7.36739 5.5 7.5C5.5 7.63261 5.55268 7.75979 5.64645 7.85355C5.74021 7.94732 5.86739 8 6 8H10C10.1326 8 10.2598 7.94732 10.3536 7.85355C10.4473 7.75979 10.5 7.63261 10.5 7.5C10.5 7.36739 10.4473 7.24022 10.3536 7.14645C10.2598 7.05268 10.1326 7 10 7ZM13.5 3V13.5C13.5 13.7652 13.3946 14.0196 13.2071 14.2071C13.0196 14.3946 12.7652 14.5 12.5 14.5H3.5C3.23478 14.5 2.98043 14.3946 2.79289 14.2071C2.60536 14.0196 2.5 13.7652 2.5 13.5V3C2.5 2.73478 2.60536 2.48043 2.79289 2.29289C2.98043 2.10536 3.23478 2 3.5 2H5.76625C6.04719 1.68545 6.39139 1.43379 6.77633 1.26147C7.16127 1.08916 7.57826 1.00009 8 1.00009C8.42174 1.00009 8.83873 1.08916 9.22367 1.26147C9.6086 1.43379 9.95281 1.68545 10.2338 2H12.5C12.7652 2 13.0196 2.10536 13.2071 2.29289C13.3946 2.48043 13.5 2.73478 13.5 3ZM6 4H10C10 3.46957 9.78929 2.96086 9.41421 2.58579C9.03914 2.21071 8.53043 2 8 2C7.46957 2 6.96086 2.21071 6.58579 2.58579C6.21071 2.96086 6 3.46957 6 4ZM12.5 3H10.8281C10.9419 3.32114 11 3.65932 11 4V4.5C11 4.63261 10.9473 4.75979 10.8536 4.85355C10.7598 4.94732 10.6326 5 10.5 5H5.5C5.36739 5 5.24021 4.94732 5.14645 4.85355C5.05268 4.75979 5 4.63261 5 4.5V4C5.00001 3.65932 5.05814 3.32114 5.17188 3H3.5V13.5H12.5V3Z" fill="#1C1C1C"/>
</svg>
