<svg width="20" height="20" viewBox="0 0 20 20" fill="none" xmlns="http://www.w3.org/2000/svg">
<path d="M14.3852 11.5391C14.2995 11.6143 14.2358 11.7113 14.2009 11.8199C14.1659 11.9284 14.161 12.0444 14.1867 12.1555L15.243 16.7289C15.2709 16.8484 15.263 16.9734 15.2204 17.0884C15.1777 17.2034 15.1022 17.3033 15.0032 17.3757C14.9041 17.4481 14.786 17.4897 14.6634 17.4954C14.5409 17.5012 14.4194 17.4707 14.3141 17.4078L10.3219 14.9859C10.2249 14.927 10.1135 14.8958 10 14.8958C9.88648 14.8958 9.77513 14.927 9.67813 14.9859L5.68594 17.4078C5.58061 17.4707 5.4591 17.5012 5.33657 17.4954C5.21403 17.4897 5.09588 17.4481 4.99685 17.3757C4.89781 17.3033 4.82226 17.2034 4.77962 17.0884C4.73698 16.9734 4.72912 16.8484 4.75704 16.7289L5.81329 12.1555C5.83896 12.0444 5.83407 11.9284 5.79913 11.8199C5.76419 11.7113 5.70051 11.6143 5.61485 11.5391L2.09063 8.46484C1.99641 8.38476 1.92806 8.27853 1.89424 8.1596C1.86041 8.04066 1.86262 7.91436 1.90059 7.79669C1.93856 7.67901 2.01059 7.57524 2.10755 7.49851C2.20452 7.42177 2.32206 7.37553 2.44532 7.36562L7.09063 6.96406C7.20397 6.95396 7.31239 6.91312 7.40422 6.84594C7.49605 6.77875 7.5678 6.68777 7.61172 6.58281L9.42657 2.25781C9.47504 2.14599 9.55515 2.05078 9.65703 1.9839C9.75892 1.91703 9.87813 1.88139 10 1.88139C10.1219 1.88139 10.2411 1.91703 10.343 1.9839C10.4449 2.05078 10.525 2.14599 10.5734 2.25781L12.3883 6.58281C12.4322 6.68777 12.504 6.77875 12.5958 6.84594C12.6876 6.91312 12.796 6.95396 12.9094 6.96406L17.5547 7.36562C17.6779 7.37553 17.7955 7.42177 17.8925 7.49851C17.9894 7.57524 18.0615 7.67901 18.0994 7.79669C18.1374 7.91436 18.1396 8.04066 18.1058 8.1596C18.0719 8.27853 18.0036 8.38476 17.9094 8.46484L14.3852 11.5391Z" fill="#1C1C1C" fill-opacity="0.1"/>
<path d="M18.6875 7.60078C18.6118 7.36749 18.4692 7.16161 18.2773 7.00881C18.0855 6.856 17.8529 6.763 17.6086 6.7414L12.9688 6.3414L11.15 2.0164C11.0553 1.78946 10.8956 1.59561 10.691 1.45926C10.4863 1.32291 10.2459 1.25015 10 1.25015C9.7541 1.25015 9.51369 1.32291 9.30905 1.45926C9.10441 1.59561 8.94469 1.78946 8.85 2.0164L7.03672 6.3414L2.39141 6.74375C2.14612 6.76436 1.91238 6.85693 1.7195 7.00985C1.52662 7.16278 1.38318 7.36924 1.30717 7.60336C1.23116 7.83748 1.22596 8.08883 1.29223 8.32589C1.3585 8.56295 1.49329 8.77517 1.67969 8.93593L5.20391 12.0156L4.14766 16.5891C4.09181 16.8284 4.10774 17.0789 4.19348 17.3092C4.27921 17.5395 4.43094 17.7395 4.62969 17.884C4.82843 18.0286 5.06539 18.1113 5.31092 18.122C5.55645 18.1326 5.79967 18.0706 6.01016 17.9437L9.99453 15.5219L13.9875 17.9437C14.198 18.0706 14.4412 18.1326 14.6867 18.122C14.9323 18.1113 15.1692 18.0286 15.368 17.884C15.5667 17.7395 15.7184 17.5395 15.8042 17.3092C15.8899 17.0789 15.9059 16.8284 15.85 16.5891L14.7945 12.0109L18.318 8.93593C18.5043 8.77462 18.6389 8.56179 18.7046 8.32423C18.7704 8.08667 18.7644 7.83497 18.6875 7.60078ZM17.4984 7.9914L13.975 11.0664C13.8035 11.2156 13.6759 11.4087 13.606 11.6249C13.5361 11.8412 13.5264 12.0724 13.5781 12.2937L14.6367 16.875L10.6469 14.4531C10.4522 14.3346 10.2287 14.2719 10.0008 14.2719C9.77287 14.2719 9.54935 14.3346 9.35469 14.4531L5.37031 16.875L6.42188 12.2969C6.47356 12.0755 6.46391 11.8443 6.39398 11.6281C6.32405 11.4118 6.19649 11.2187 6.025 11.0695L2.5 7.99609C2.49972 7.99376 2.49972 7.99139 2.5 7.98906L7.14375 7.5875C7.37047 7.56751 7.58743 7.48601 7.77123 7.35177C7.95503 7.21754 8.09869 7.03567 8.18672 6.82578L10 2.50625L11.8125 6.82578C11.9005 7.03567 12.0442 7.21754 12.228 7.35177C12.4118 7.48601 12.6287 7.56751 12.8555 7.5875L17.5 7.98906C17.5 7.98906 17.5 7.99375 17.5 7.99453L17.4984 7.9914Z" fill="#1C1C1C"/>
</svg>
